<mxfile host="Electron" agent="Mozilla/5.0 (Windows NT 10.0; Win64; x64) AppleWebKit/537.36 (KHTML, like Gecko) draw.io/26.0.3 Chrome/130.0.6723.137 Electron/33.2.1 Safari/537.36" version="26.0.3">
  <diagram id="Y2K4iwJQyvND9k0iXzk0" name="Page-1">
    <mxGraphModel dx="930" dy="835" grid="1" gridSize="10" guides="1" tooltips="1" connect="1" arrows="1" fold="1" page="1" pageScale="1" pageWidth="850" pageHeight="1100" math="0" shadow="0">
      <root>
        <mxCell id="0" />
        <mxCell id="1" parent="0" />
        <mxCell id="VqcEiD81fEdupNYyObf1-6" value="" style="edgeStyle=orthogonalEdgeStyle;rounded=0;orthogonalLoop=1;jettySize=auto;html=1;" edge="1" parent="1" source="VqcEiD81fEdupNYyObf1-1" target="VqcEiD81fEdupNYyObf1-5">
          <mxGeometry relative="1" as="geometry" />
        </mxCell>
        <mxCell id="VqcEiD81fEdupNYyObf1-10" value="" style="edgeStyle=orthogonalEdgeStyle;rounded=0;orthogonalLoop=1;jettySize=auto;html=1;entryX=0;entryY=0.5;entryDx=0;entryDy=0;" edge="1" parent="1" source="VqcEiD81fEdupNYyObf1-1" target="VqcEiD81fEdupNYyObf1-9">
          <mxGeometry relative="1" as="geometry" />
        </mxCell>
        <mxCell id="VqcEiD81fEdupNYyObf1-1" value="Input Layer" style="rounded=0;whiteSpace=wrap;html=1;" vertex="1" parent="1">
          <mxGeometry x="40" y="90" width="120" height="60" as="geometry" />
        </mxCell>
        <mxCell id="VqcEiD81fEdupNYyObf1-8" value="" style="edgeStyle=orthogonalEdgeStyle;rounded=0;orthogonalLoop=1;jettySize=auto;html=1;" edge="1" parent="1" source="VqcEiD81fEdupNYyObf1-5" target="VqcEiD81fEdupNYyObf1-7">
          <mxGeometry relative="1" as="geometry" />
        </mxCell>
        <mxCell id="VqcEiD81fEdupNYyObf1-17" value="" style="edgeStyle=orthogonalEdgeStyle;rounded=0;orthogonalLoop=1;jettySize=auto;html=1;entryX=0;entryY=0.5;entryDx=0;entryDy=0;" edge="1" parent="1" source="VqcEiD81fEdupNYyObf1-5" target="VqcEiD81fEdupNYyObf1-19">
          <mxGeometry relative="1" as="geometry">
            <mxPoint x="260" y="260" as="targetPoint" />
          </mxGeometry>
        </mxCell>
        <mxCell id="VqcEiD81fEdupNYyObf1-5" value="Processing Layer" style="whiteSpace=wrap;html=1;rounded=0;" vertex="1" parent="1">
          <mxGeometry x="40" y="230" width="120" height="60" as="geometry" />
        </mxCell>
        <mxCell id="VqcEiD81fEdupNYyObf1-29" value="" style="edgeStyle=orthogonalEdgeStyle;rounded=0;orthogonalLoop=1;jettySize=auto;html=1;entryX=0;entryY=0.5;entryDx=0;entryDy=0;" edge="1" parent="1" source="VqcEiD81fEdupNYyObf1-7" target="VqcEiD81fEdupNYyObf1-24">
          <mxGeometry relative="1" as="geometry">
            <mxPoint x="260" y="400" as="targetPoint" />
          </mxGeometry>
        </mxCell>
        <mxCell id="VqcEiD81fEdupNYyObf1-7" value="Output Layer" style="whiteSpace=wrap;html=1;rounded=0;" vertex="1" parent="1">
          <mxGeometry x="40" y="370" width="120" height="60" as="geometry" />
        </mxCell>
        <mxCell id="VqcEiD81fEdupNYyObf1-14" value="" style="edgeStyle=orthogonalEdgeStyle;rounded=0;orthogonalLoop=1;jettySize=auto;html=1;" edge="1" parent="1" source="VqcEiD81fEdupNYyObf1-9" target="VqcEiD81fEdupNYyObf1-12">
          <mxGeometry relative="1" as="geometry" />
        </mxCell>
        <mxCell id="VqcEiD81fEdupNYyObf1-9" value="Voice" style="rhombus;whiteSpace=wrap;html=1;rounded=0;" vertex="1" parent="1">
          <mxGeometry x="290" y="80" width="80" height="80" as="geometry" />
        </mxCell>
        <mxCell id="VqcEiD81fEdupNYyObf1-11" value="Image" style="rhombus;whiteSpace=wrap;html=1;rounded=0;" vertex="1" parent="1">
          <mxGeometry x="510" y="80" width="80" height="80" as="geometry" />
        </mxCell>
        <mxCell id="VqcEiD81fEdupNYyObf1-15" value="" style="edgeStyle=orthogonalEdgeStyle;rounded=0;orthogonalLoop=1;jettySize=auto;html=1;" edge="1" parent="1" source="VqcEiD81fEdupNYyObf1-12" target="VqcEiD81fEdupNYyObf1-11">
          <mxGeometry relative="1" as="geometry" />
        </mxCell>
        <mxCell id="VqcEiD81fEdupNYyObf1-12" value="Text" style="rhombus;whiteSpace=wrap;html=1;rounded=0;" vertex="1" parent="1">
          <mxGeometry x="400" y="80" width="80" height="80" as="geometry" />
        </mxCell>
        <mxCell id="VqcEiD81fEdupNYyObf1-18" value="" style="edgeStyle=orthogonalEdgeStyle;rounded=0;orthogonalLoop=1;jettySize=auto;html=1;" edge="1" parent="1" source="VqcEiD81fEdupNYyObf1-19" target="VqcEiD81fEdupNYyObf1-22">
          <mxGeometry relative="1" as="geometry" />
        </mxCell>
        <mxCell id="VqcEiD81fEdupNYyObf1-19" value="NLP" style="rhombus;whiteSpace=wrap;html=1;rounded=0;" vertex="1" parent="1">
          <mxGeometry x="290" y="220" width="80" height="80" as="geometry" />
        </mxCell>
        <mxCell id="VqcEiD81fEdupNYyObf1-20" value="API&lt;div&gt;Decision-&lt;/div&gt;&lt;div&gt;Making&lt;/div&gt;" style="rhombus;whiteSpace=wrap;html=1;rounded=0;" vertex="1" parent="1">
          <mxGeometry x="505" y="215" width="90" height="90" as="geometry" />
        </mxCell>
        <mxCell id="VqcEiD81fEdupNYyObf1-21" value="" style="edgeStyle=orthogonalEdgeStyle;rounded=0;orthogonalLoop=1;jettySize=auto;html=1;" edge="1" parent="1" source="VqcEiD81fEdupNYyObf1-22" target="VqcEiD81fEdupNYyObf1-20">
          <mxGeometry relative="1" as="geometry" />
        </mxCell>
        <mxCell id="VqcEiD81fEdupNYyObf1-22" value="Logic" style="rhombus;whiteSpace=wrap;html=1;rounded=0;" vertex="1" parent="1">
          <mxGeometry x="400" y="220" width="80" height="80" as="geometry" />
        </mxCell>
        <mxCell id="VqcEiD81fEdupNYyObf1-23" value="" style="edgeStyle=orthogonalEdgeStyle;rounded=0;orthogonalLoop=1;jettySize=auto;html=1;" edge="1" parent="1" source="VqcEiD81fEdupNYyObf1-24" target="VqcEiD81fEdupNYyObf1-27">
          <mxGeometry relative="1" as="geometry" />
        </mxCell>
        <mxCell id="VqcEiD81fEdupNYyObf1-24" value="Text-to-&lt;div&gt;Speech&lt;/div&gt;" style="rhombus;whiteSpace=wrap;html=1;rounded=0;" vertex="1" parent="1">
          <mxGeometry x="290" y="360" width="80" height="80" as="geometry" />
        </mxCell>
        <mxCell id="VqcEiD81fEdupNYyObf1-25" value="Holographic&lt;div&gt;&lt;font&gt;U&lt;span&gt;I 2D and&lt;/span&gt;&lt;/font&gt;&lt;/div&gt;&lt;div&gt;&lt;font&gt;&lt;span&gt;3D&lt;/span&gt;&lt;/font&gt;&lt;/div&gt;" style="rhombus;whiteSpace=wrap;html=1;rounded=0;" vertex="1" parent="1">
          <mxGeometry x="510" y="345" width="100" height="110" as="geometry" />
        </mxCell>
        <mxCell id="VqcEiD81fEdupNYyObf1-26" value="" style="edgeStyle=orthogonalEdgeStyle;rounded=0;orthogonalLoop=1;jettySize=auto;html=1;" edge="1" parent="1" source="VqcEiD81fEdupNYyObf1-27" target="VqcEiD81fEdupNYyObf1-25">
          <mxGeometry relative="1" as="geometry" />
        </mxCell>
        <mxCell id="VqcEiD81fEdupNYyObf1-27" value="Voice and&lt;div&gt;Image&lt;/div&gt;" style="rhombus;whiteSpace=wrap;html=1;rounded=0;" vertex="1" parent="1">
          <mxGeometry x="400" y="360" width="80" height="80" as="geometry" />
        </mxCell>
      </root>
    </mxGraphModel>
  </diagram>
</mxfile>
